<svg width="77" height="77" viewBox="0 0 77 77" fill="none" xmlns="http://www.w3.org/2000/svg">
<circle cx="38.5" cy="38.5" r="38.5" fill="#2A69B9"/>
<path fill-rule="evenodd" clip-rule="evenodd" d="M56.1925 37.5986C56.1925 38.865 55.1671 39.8941 53.897 39.8941H40.8893V52.9018C40.8893 54.1681 39.864 55.1973 38.5938 55.1973C37.3237 55.1973 36.3022 54.1681 36.3022 52.9018V39.8941H23.2907C22.0205 39.8941 20.999 38.865 20.999 37.5986C20.999 36.3323 22.0205 35.3032 23.2907 35.3032H36.3022V22.2955C36.3022 21.0291 37.3237 20 38.5938 20C39.864 20 40.8893 21.0291 40.8893 22.2955V35.3032H53.897C55.1671 35.3032 56.1925 36.3323 56.1925 37.5986Z" fill="white"/>
</svg>
